<svg width="10" height="13" viewBox="0 0 10 13" fill="none" xmlns="http://www.w3.org/2000/svg">
<path d="M5.00001 0.93335C4.6287 0.93335 4.27261 1.08085 4.01006 1.3434C3.74751 1.60595 3.60001 1.96205 3.60001 2.33335C3.60001 2.70465 3.74751 3.06075 4.01006 3.3233C4.27261 3.58585 4.6287 3.73335 5.00001 3.73335C5.37131 3.73335 5.72741 3.58585 5.98996 3.3233C6.25251 3.06075 6.40001 2.70465 6.40001 2.33335C6.40001 1.96205 6.25251 1.60595 5.98996 1.3434C5.72741 1.08085 5.37131 0.93335 5.00001 0.93335ZM8.72878 2.32606C8.62017 2.32919 8.51605 2.37013 8.43438 2.44181L6.02358 4.45067C5.85572 4.59049 5.64515 4.66668 5.42657 4.66668H4.57345C4.35487 4.66668 4.14409 4.58991 3.97553 4.44976V4.45067L1.56563 2.44181C1.48215 2.36993 1.37593 2.32989 1.26576 2.32879C1.16892 2.32789 1.07419 2.35713 0.994704 2.41247C0.915222 2.46781 0.854926 2.54651 0.822174 2.63766C0.789422 2.7288 0.785837 2.82788 0.811915 2.92115C0.837993 3.01443 0.892442 3.09728 0.967716 3.15822L1.05977 3.23478L3.32748 5.50705C3.50201 5.68205 3.60001 5.9187 3.60001 6.16603V12.1179C3.60001 12.3839 3.81617 12.6 4.08217 12.6C4.33604 12.6 4.54662 12.4027 4.56342 12.1498L4.76759 9.08452C4.77599 8.96225 4.87727 8.86668 5.00001 8.86668C5.12274 8.86668 5.22403 8.96225 5.23243 9.08452L5.4366 12.1498C5.4534 12.4027 5.66398 12.6 5.91785 12.6C6.18385 12.6 6.40001 12.3839 6.40001 12.1179V6.16603C6.40001 5.9187 6.498 5.68205 6.67253 5.50705L8.94024 3.23478L9.0323 3.15822C9.1091 3.0973 9.16476 3.01375 9.1914 2.91941C9.21804 2.82508 9.2143 2.72475 9.18071 2.63266C9.14713 2.54057 9.08539 2.46139 9.00427 2.40636C8.92316 2.35132 8.82677 2.32323 8.72878 2.32606Z" fill="#343B73"/>
</svg>
