<svg width="12" height="12" viewBox="0 0 12 12" fill="none" xmlns="http://www.w3.org/2000/svg">
<path d="M3.72587 0.874898C3.4437 0.838127 3.15335 0.931533 2.94475 1.14013L2.73329 1.35159L4.46506 2.84912L6.39826 2.08167L4.00204 0.955107C3.91302 0.913223 3.81992 0.887156 3.72587 0.874898ZM10.6666 1.33336C10.5197 1.33332 10.3747 1.36798 10.2437 1.43453L2.26662 4.60003L1.43355 3.8663C1.19602 3.65677 0.854578 3.6128 0.571311 3.75419L0.399957 3.83987L1.39892 5.87516C1.4675 6.04943 1.58693 6.19905 1.74168 6.30454C1.89643 6.41004 2.07934 6.46654 2.26662 6.46669C2.40343 6.46627 2.53848 6.43578 2.6622 6.37737L5.79761 5.15966L5.53329 8.80003H5.83316C6.22656 8.80003 6.57789 8.55304 6.71089 8.18297L8.1273 4.25459L11.0048 3.13623C11.0066 3.13562 11.0084 3.13502 11.0102 3.1344V3.13349C11.184 3.06467 11.3332 2.94526 11.4383 2.79072C11.5434 2.63617 11.5998 2.45362 11.6 2.2667C11.6 2.01916 11.5016 1.78176 11.3266 1.60673C11.1516 1.43169 10.9142 1.33336 10.6666 1.33336ZM0.866624 10.2C0.804785 10.1992 0.743389 10.2106 0.686004 10.2336C0.628618 10.2567 0.576389 10.2909 0.532349 10.3344C0.48831 10.3778 0.45334 10.4295 0.429471 10.4866C0.405602 10.5436 0.393311 10.6048 0.393311 10.6667C0.393311 10.7285 0.405602 10.7898 0.429471 10.8468C0.45334 10.9039 0.48831 10.9556 0.532349 10.999C0.576389 11.0425 0.628618 11.0767 0.686004 11.0998C0.743389 11.1228 0.804785 11.1342 0.866624 11.1334H11.1333C11.1951 11.1342 11.2565 11.1228 11.3139 11.0998C11.3713 11.0767 11.4235 11.0425 11.4676 10.999C11.5116 10.9556 11.5466 10.9039 11.5704 10.8468C11.5943 10.7898 11.6066 10.7285 11.6066 10.6667C11.6066 10.6048 11.5943 10.5436 11.5704 10.4866C11.5466 10.4295 11.5116 10.3778 11.4676 10.3344C11.4235 10.2909 11.3713 10.2567 11.3139 10.2336C11.2565 10.2106 11.1951 10.1992 11.1333 10.2H0.866624Z" fill="#343B73"/>
</svg>
