<svg id="Layer_1" data-name="Layer 1" xmlns="http://www.w3.org/2000/svg" viewBox="0 0 612 792"><defs><style>.cls-1{fill:#3182ce;}</style></defs><title>Artboard 1</title><path class="cls-1" d="M64.47,351.34v79.37H144.6V351.34ZM134,419c-.38,5.29-4.54,3.78-4.54,3.78s-46.87.38-51,0-3.4-3.78-3.4-3.78V368.72c0-3.63,4.06-3.87,4.06-3.87h5.67v-6.52h7.08v6.24l26.08.14v-6.38h6.81v6.59l5.48,0c4.53-.37,3.78,3.78,3.78,3.78S134.39,413.7,134,419Z"/><path class="cls-1" d="M81.67,381v36h45.92V381ZM100,411.34,89.18,400.43l4.11-4.24,7.37,6.93,15.59-16,4.11,3.92Z"/><path class="cls-1" d="M169.07,406.19s1.7,8.93,5,8.5.85-7.65.85-7.65l-.42-24.38s-.15-3.12,2.41,1,16.58,20.27,16.58,20.27,3.4,4.82,6.66-.14,13.75-26.5,13.75-26.5,2.27-4.45,2.55,3.73,5.1,33.7,5.1,33.7,5,9.9,6.38-.58l-1-5.25-5.67-43.65s-3-7.37-7.09.71l-15.66,28.2s-1.77,4.25-4.46,0S177,375,177,375l-2-2.41s-.14-4.11-2.83-5.25-4.25,2.7-4.25,2.7Z"/><path class="cls-1" d="M264.46,398.25c-.29,2-6.38,3.69-6.38,3.69l-8.93.42a8.09,8.09,0,0,1-3.83-5.49c-.56-3.72.14-5,.14-5l8.56.29s8.88,0,14.41-7.09l-.15-5.24s-2.83-6.52-8.78-6.81-18.71-1.41-21.69,10.78l-.57,1.27V394s3.55,13,12.19,14.17,9.36,0,9.36,0,7.23-1.56,11-7.93S264.74,396.27,264.46,398.25Zm-3.55-16.16c-6.8,5.67-16.44,3.55-16.44,3.55C254.68,372,260.91,382.09,260.91,382.09Z"/><path class="cls-1" d="M305.2,398.25c-.28,2-6.37,3.69-6.37,3.69l-8.93.42a8.09,8.09,0,0,1-3.83-5.49c-.57-3.72.14-5,.14-5l8.56.29s8.88,0,14.4-7.09l-.14-5.24s-2.83-6.52-8.79-6.81-18.7-1.41-21.68,10.78l-.57,1.27V394s3.55,13,12.19,14.17,9.36,0,9.36,0,7.22-1.56,11-7.93S305.49,396.27,305.2,398.25Zm-3.54-16.16c-6.8,5.67-16.44,3.55-16.44,3.55C295.43,372,301.66,382.09,301.66,382.09Z"/><path class="cls-1" d="M330.65,364.24l-1,20.41L319.31,386s-6.1,3.15-1.14,6h10.77l-.28,19.27S328,423.76,343.54,417s17.72-10.77,17.72-10.77,3.83-8.22-4.82-4.54c0,0-7.09,6.66-20.13,9.22l.29-20.1h11.76s9.36-3.29-.56-6.69H336.74l.71-19.84S334.05,360.13,330.65,364.24Z"/><path class="cls-1" d="M516.18,364.24l-1,20.41L504.84,386s-6.09,3.15-1.13,6h10.77l-.28,19.27s-.71,12.47,14.88,5.67,17.72-10.77,17.72-10.77,3.82-8.22-4.82-4.54c0,0-7.09,6.66-20.13,9.22l.28-20.1H533.9s9.35-3.29-.57-6.69H522.28l.7-19.84S519.58,360.13,516.18,364.24Z"/><path class="cls-1" d="M372.6,365.51v4.82s-2.84,1.84,21.83,15.87-.86,31.33-.86,31.33-8.5,2.27-13.18,0-8.78-3.81-9.35-8.85c0,0,2.55-5,9.5,1.34s18.28-4.26,16.72-6,3-6.46-8.22-13.29-22.39-12.64-23.39-20.72,6.52-12.76,6.52-12.76,7.37-6,16.3-2.27,8.93,8.08,8.93,8.08-.57,6.52-7.65.57S377.13,360,372.6,365.51Z"/><path class="cls-1" d="M421.21,382q1.43,7.8,2.84,15.59s2,2-4.11,5.53c0,0-1,3.4,2.21,3.69s2.21,0,2.21,0l1,19.55s4.25,9.5,7.23,0l-.71-22.67s12.05-5.87,17-17.46a17.54,17.54,0,0,0-8.79-19.25c-12-6.95-31.6,9.64-31.6,10.49s-1.28,6.38,6.09,3.26,12.19-7.94,24.52-6.24c0,0,4.68.85,3,10.63,0,0-6.52,10.51-11.48,10.43l-.57-9.32s-1.28-7.77-5.81-7.06S421.21,382,421.21,382Z"/><path class="cls-1" d="M480.46,373.17c-4.26-.43-16.59-6.81-22.54,14.59v11.91s2.41,13,12.05,13.89,8.36,0,8.36,0S489,410.61,494.06,396,484.71,373.59,480.46,373.17Zm2.12,27.63c-4.67,6-7.65,4.54-11.48,4.68s-6-9.07-5.81-14.78,5.81-11.3,5.81-11.3c4.82-3.12,8.65,2.27,8.65,2.27a6,6,0,0,1,7.37,3.68C489.53,393.15,487.26,394.85,482.58,400.8Z"/></svg>